<?xml version="1.0" encoding="utf-8"?>
<!-- Generator: Adobe Illustrator 26.0.2, SVG Export Plug-In . SVG Version: 6.00 Build 0)  -->
<svg class="opportune-logo" version="1.1" id="Layer_1" xmlns="http://www.w3.org/2000/svg" xmlns:xlink="http://www.w3.org/1999/xlink" x="0px" y="0px"
	 viewBox="0 0 148.4 47.5" style="enable-background:new 0 0 148.4 47.5;" xml:space="preserve">
<style type="text/css">
	.st0{fill:#FFFFFF;}
</style>

<g id="OPP-5735_Logo_CMYK" transform="translate(-57.6 -34.4)">
	<g id="Group_8" transform="translate(57.6 34.4)">
		<path id="Path_53" class="st0" d="M21.4,14.6h5.2c3.8,0,6.3,2.1,6.3,5.6c0,3.4-2.5,5.6-6.3,5.6h-2.8v7.1h-2.4V14.6z M26.5,23.6
			c2.6,0,4-1.3,4-3.4c0-2.1-1.4-3.4-4-3.4h-2.7v6.8H26.5z"/>
		<path id="Path_54" class="st0" d="M35.5,14.6h5.2c3.8,0,6.3,2.1,6.3,5.6c0,3.4-2.5,5.6-6.3,5.6h-2.8v7.1h-2.4V14.6z M40.6,23.6
			c2.6,0,4-1.3,4-3.4c0-2.1-1.4-3.4-4-3.4h-2.7v6.8H40.6z"/>
		<path id="Path_55" class="st0" d="M49.2,23.7c0-5.2,4.2-9.3,9.3-9.3c5.2,0,9.3,4.2,9.3,9.3c0,5.2-4.2,9.3-9.3,9.3l0,0
			c-5.1,0.1-9.3-4-9.3-9.1C49.2,23.9,49.2,23.8,49.2,23.7z M65.5,23.7c-0.1-3.8-3.2-6.9-7.1-6.8c-3.8,0.1-6.9,3.2-6.8,7.1
			c0.1,3.8,3.2,6.8,7,6.8c3.8,0.1,6.9-3,7-6.8C65.5,23.9,65.5,23.8,65.5,23.7z"/>
		<path id="Path_56" class="st0" d="M75.2,24.9h-2v8h-2.4V14.6h5.4c3.6,0,5.9,2,5.9,5.2c0.1,2.5-1.8,4.7-4.3,5l6.3,8.1h-2.9
			L75.2,24.9z M76.2,22.8c2.4,0,3.6-1.1,3.6-3c0-1.9-1.2-3-3.6-3h-2.9v6.1L76.2,22.8L76.2,22.8z"/>
		<path id="Path_57" class="st0" d="M89.8,16.8h-5.2v-2.3h12.7v2.3h-5.2v16h-2.4L89.8,16.8z"/>
		<path id="Path_58" class="st0" d="M100.5,25.9V14.6h2.4V26c0,3.2,2,4.8,4.9,4.8s4.9-1.6,4.9-4.8V14.6h2.4v11.3
			c0,4.5-3,7.2-7.3,7.2C103.5,33.1,100.5,30.4,100.5,25.9z"/>
		<path id="Path_59" class="st0" d="M121.3,19.8v13H119V14.4l13,13.2v-13h2.4v18.5L121.3,19.8z"/>
		<path id="Path_60" class="st0" d="M137.9,14.6h10.5v2.3h-8.2v5.5h6.7v2.3h-6.7v5.9h8.2v2.3h-10.5V14.6z"/>
	</g>
</g>
</svg>
