<svg version="1.1" viewBox="0.0 0.0 660.8976377952756 653.49343832021" fill="none" stroke="none" stroke-linecap="square" stroke-miterlimit="10" xmlns:xlink="http://www.w3.org/1999/xlink" xmlns="http://www.w3.org/2000/svg"><clipPath id="p.0"><path d="m0 0l660.89764 0l0 653.4934l-660.89764 0l0 -653.4934z" clip-rule="nonzero"/></clipPath><g clip-path="url(#p.0)"><path fill="#000000" fill-opacity="0.0" d="m0 0l660.89764 0l0 653.4934l-660.89764 0z" fill-rule="evenodd"/><path fill="#93c47d" d="m95.92649 156.62085l0 0c73.75596 -101.67462 204.62598 -144.24341 324.08365 -105.41643l-44.77951 137.77165c-59.72885 -19.413498 -125.16385 1.8709106 -162.04184 52.70822z" fill-rule="evenodd"/><path fill="#ffe599" d="m96.19332 497.23825l0 0c-73.905914 -101.56131 -73.95226 -239.1767 -0.11476135 -340.78772l117.18897 85.15747c-36.918747 50.805527 -36.89557 119.613235 0.057388306 170.39388z" fill-rule="evenodd"/><path fill="#e06666" d="m420.2273 602.219l0 0c-119.4288 38.92206 -250.33452 -3.5439453 -324.17203 -105.161804l117.196846 -85.15747c36.918747 50.80893 102.3716 72.04193 162.08601 52.580902z" fill-rule="evenodd"/><path fill="#8e7cc3" d="m620.18823 326.8088l0 0c-0.03161621 125.60391 -80.99341 236.88132 -200.49203 275.56497l-44.614166 -137.81891c59.74933 -19.341827 100.230225 -74.98053 100.246 -137.7825z" fill-rule="evenodd"/><path fill="#76a5af" d="m419.71912 51.164l0 0c119.487305 38.71315 200.42004 150.00945 200.42004 275.6117l-144.85825 0c0 -62.801117 -40.46637 -118.449265 -100.21005 -137.80585z" fill-rule="evenodd"/><path fill="#ffe599" d="m95.0796 157.28596l83.88976 7.3385773l33.055115 77.51181z" fill-rule="evenodd"/><path fill="#93c47d" d="m418.92484 50.517296l18.944885 82.07874l-63.51181 55.37007z" fill-rule="evenodd"/><path fill="#76a5af" d="m620.1391 326.6483l-72.44092 43.433075l-72.44095 -43.496063z" fill-rule="evenodd"/><path fill="#8e7cc3" d="m419.9265 602.35004l-63.637787 -55.543335l19.070862 -82.31494z" fill-rule="evenodd"/><path fill="#e06666" d="m96.74101 497.8962l33.02362 -77.77954l84.17323 -7.417328z" fill-rule="evenodd"/></g></svg>